<?xml version="1.0" encoding="UTF-8" standalone="no"?>
<svg width="158px" height="158px" viewBox="0 0 158 158" version="1.1" xmlns="http://www.w3.org/2000/svg" xmlns:xlink="http://www.w3.org/1999/xlink">
    <!-- Generator: Sketch 3.7.1 (28215) - http://www.bohemiancoding.com/sketch -->
    <title>hyperv-juju</title>
    <desc>Created with Sketch.</desc>
    <defs>
        <linearGradient x1="50%" y1="0%" x2="50%" y2="100%" id="linearGradient-1">
            <stop stop-color="#EEEEEE" offset="0%"></stop>
            <stop stop-color="#D8D8D8" offset="100%"></stop>
        </linearGradient>
    </defs>
    <g id="Page-1" stroke="none" stroke-width="1" fill="none" fill-rule="evenodd">
        <g id="hyperv">
            <rect id="Rectangle-1-Copy-2" fill="url(#linearGradient-1)" x="0" y="0" width="158" height="158" rx="24"></rect>
            <g id="Page-1-Copy" transform="translate(25.000000, 38.000000)">
                <path d="M35.0562367,31.26594 C37.9086041,31.18644 40.7597671,31.16424 43.6115323,31.20144 C43.4203307,26.04684 43.4287616,20.89734 43.6374273,15.74214 C42.8301649,15.53364 41.9939964,15.40794 41.1388583,15.38274 C38.7492892,15.31254 36.3609246,15.30954 33.9713555,15.37344 C29.0491925,15.50514 24.7280351,18.86064 23.1153169,23.33814 C23.5383693,23.35284 23.9614218,23.36154 24.3847754,23.38014 C29.1943251,23.59044 33.4203334,26.88954 35.0562367,31.26594" id="Fill-1" fill="#1A7BD3"></path>
                <g id="Group-5" transform="translate(0.000000, 23.203500)" fill="#515B78">
                    <path d="M16.4155807,19.46283 C16.6661,15.55383 19.0863818,11.98833 22.4265392,10.00833 C22.3816746,7.87983 22.3825779,5.75163 22.4455088,3.62283 C22.4813403,2.41233 22.7171055,1.23993 23.1151663,0.13443 C19.2631304,-0.00147 15.4141055,0.00153 11.5605641,0.15963 C5.5357547,0.40713 0.409442541,5.50113 0.145072376,11.50323 C-0.0425160221,15.76383 -0.0482370166,20.01933 0.128210497,24.28023 C0.376320994,30.28293 5.48938453,35.39073 11.5132906,35.65383 C13.0133956,35.71953 14.5125972,35.75463 16.0117989,35.77563 C15.9335116,30.33993 16.0666,24.90633 16.4155807,19.46283" id="Fill-3"></path>
                </g>
                <path d="M22.4263887,33.21192 C23.9683472,32.29782 25.7054218,31.72122 27.5165682,31.60602 C30.0316981,31.44582 32.5444191,31.33572 35.0562367,31.26582 C33.4200323,26.88972 29.1943251,23.59032 24.3847754,23.38002 C23.9614218,23.36172 23.5383693,23.35302 23.1153169,23.33802 C22.7172561,24.44322 22.4814909,25.61592 22.4456594,26.82642 C22.3824273,28.95522 22.3818251,31.08312 22.4263887,33.21192" id="Fill-6" fill="#263156"></path>
                <path d="M108.718617,40.08765 C108.568366,33.88575 103.346001,28.68255 97.1212583,28.53315 C95.1535373,28.48575 93.1867196,28.48575 91.2189986,28.53315 C91.2105677,28.53345 91.2024378,28.53405 91.194308,28.53435 C91.1343881,31.05645 91.0323135,33.57915 90.8766423,36.10395 C90.8573715,36.41625 90.8218412,36.72585 90.7760732,37.03275 C92.743192,39.07095 94.0186727,41.77245 94.1445345,44.68935 C94.3297141,48.98085 94.3303163,53.26695 94.1484489,57.55815 C95.1393854,57.55845 96.1303218,57.54675 97.1215594,57.52305 C103.346001,57.37335 108.568366,52.17015 108.718617,45.96855 C108.765891,44.00805 108.766192,42.04815 108.718617,40.08765" id="Fill-8" fill="#19A2FF"></path>
                <path d="M94.1444442,44.68941 C94.0185823,41.77221 92.7431017,39.07101 90.7759829,37.03281 C89.9741403,42.40221 85.2040354,46.88631 79.7257315,47.23221 C79.7188061,47.23281 79.7121818,47.23371 79.7052564,47.23401 C75.0050077,47.52171 70.3119856,47.63961 65.6180602,47.59911 C65.8932702,54.40491 65.8339525,61.20171 65.4398061,68.01171 C66.764668,68.61351 68.2054552,68.97711 69.7028503,69.04131 C74.0520105,69.22761 78.3951486,69.22761 82.7440077,69.04131 C88.768516,68.78331 93.8854939,63.68511 94.1444442,57.68301 C94.1462508,57.64131 94.1465519,57.59991 94.1483586,57.55821 C94.330226,53.26701 94.3296238,48.98091 94.1444442,44.68941" id="Fill-10" fill="#1A7BD3"></path>
                <path d="M52.6341729,26.86626 C52.6760265,28.41666 52.6784354,29.96646 52.663079,31.51656 C53.1972392,31.54656 53.7313994,31.57176 54.2655597,31.60596 C57.5659713,31.81596 60.6206812,33.55686 62.6913801,36.08466 C64.6419381,34.46916 67.0863083,33.44316 69.7029105,33.33096 C73.8151011,33.15486 77.922474,33.15126 82.0340624,33.30816 C84.1661867,30.50436 87.5027309,28.63116 91.1942779,28.53426 C91.3288718,22.85976 91.2270983,17.18946 90.8766122,11.50836 C90.5198028,5.72946 85.5058028,0.73356 79.7056177,0.37836 C71.4694934,-0.12594 63.2553497,-0.12594 55.0192254,0.37836 C49.2190403,0.73356 44.2047392,5.72946 43.8482309,11.50866 C43.7612116,12.92046 43.6946674,14.33136 43.6374575,15.74226 C48.6246591,17.03076 52.4923525,21.60366 52.6341729,26.86626" id="Fill-12" fill="#515B78"></path>
                <path d="M43.6116829,31.20135 C46.6275503,31.24035 49.6440199,31.34715 52.6631994,31.51665 C52.6785558,29.96655 52.6758459,28.41675 52.6342934,26.86635 C52.4921718,21.60375 48.6244785,17.03055 43.6375779,15.74235 C43.4289122,20.89725 43.4201801,26.04675 43.6116829,31.20135" id="Fill-14" fill="#263156"></path>
                <path d="M82.0340022,33.30822 C82.2706707,33.31722 82.5073392,33.32082 82.7443088,33.33102 C85.8408724,33.46362 88.6953475,34.87722 90.7759829,37.03272 C90.8217508,36.72582 90.8572812,36.41622 90.8765519,36.10392 C91.0322232,33.57912 91.1342978,31.05642 91.1942177,28.53432 C87.5026707,28.63092 84.1661265,30.50442 82.0340022,33.30822" id="Fill-16" fill="#1A7BD3"></path>
                <path d="M82.7442185,33.33102 C82.5072489,33.32082 82.2708815,33.31722 82.0339119,33.30822 C77.9223235,33.15132 73.8152517,33.15492 69.7027599,33.33102 C67.0864588,33.44322 64.6417876,34.46922 62.6915307,36.08472 C64.218434,37.94922 65.2111771,40.24092 65.3665472,42.66612 C65.4722351,44.31132 65.5514257,45.95532 65.6179699,47.59902 C70.3121964,47.63952 75.0052185,47.52192 79.7054671,47.23392 C79.7120914,47.23362 79.7190169,47.23272 79.7256412,47.23212 C85.2042461,46.88652 89.97405,42.40212 90.7758925,37.03272 C88.6952572,34.87722 85.840782,33.46362 82.7442185,33.33102" id="Fill-18" fill="#263156"></path>
                <path d="M58.3026246,57.6828 C58.154782,54.2547 58.1285859,50.8302 58.2147019,47.4036 C57.1499948,47.3553 56.0849865,47.2995 55.019376,47.2341 C52.0254892,47.0508 49.2432793,45.6294 47.2008843,43.5039 C45.4174395,44.6829 43.3199423,45.4011 41.098992,45.4605 C39.3393345,45.5076 37.5805804,45.5058 35.8215251,45.4803 C35.8007489,46.1637 35.7832848,46.8471 35.7528732,47.5308 C35.4888041,53.5329 30.362492,58.6269 24.3376826,58.8744 C21.5608925,58.9884 18.7868124,59.0178 16.011829,58.9791 C16.0615113,62.4231 16.1942986,65.868 16.4156108,69.3171 C16.7817544,75.0306 21.7822047,80.0124 27.5167489,80.3775 C36.4418014,80.9454 45.3403566,80.9454 54.2654091,80.3775 C59.9999533,80.0124 65.0004036,75.0306 65.3665472,69.3171 C65.39455,68.8818 65.414724,68.4468 65.4400169,68.0118 C61.4353207,66.1926 58.4971384,62.1933 58.3026246,57.6828" id="Fill-20" fill="#19A2FF"></path>
                <path d="M43.6116829,31.20135 C40.7599177,31.16445 37.9084536,31.18665 35.0563873,31.26585 C35.4692022,32.37105 35.7200227,33.54345 35.7700061,34.75365 C35.9181497,38.33085 35.9301939,41.90445 35.821495,45.48015 C37.5805503,45.50595 39.3393044,45.50775 41.0989619,45.46065 C43.3199122,45.40095 45.4174094,44.68275 47.2008541,43.50405 C45.2858265,41.51145 44.0205834,38.90025 43.8483514,36.10395 C43.7474812,34.46895 43.672205,32.83485 43.6116829,31.20135" id="Fill-22" fill="#8CD1FF"></path>
                <path d="M24.3375622,58.87428 C30.3623715,58.62678 35.4886837,53.53278 35.7530539,47.53098 C35.7831644,46.84698 35.8006285,46.16358 35.8214047,45.48018 C35.1914931,45.47088 34.5615815,45.46968 33.9313688,45.45108 C27.7945483,45.27078 22.6010898,40.08228 22.4360843,33.96768 C22.4291588,33.71568 22.4315677,33.46398 22.4264489,33.21198 C19.0865925,35.19168 16.6663108,38.75748 16.4154903,42.66618 C16.0665097,48.10968 15.9334213,53.54328 16.0117086,58.97898 C18.786692,59.01798 21.5610732,58.98828 24.3375622,58.87428" id="Fill-24" fill="#8CD1FF"></path>
                <path d="M35.7700663,34.75365 C35.7200829,33.54345 35.4692624,32.37105 35.0561464,31.26585 C32.5443287,31.33575 30.0316077,31.44585 27.516779,31.60575 C25.7056326,31.72125 23.9682569,32.29785 22.4262983,33.21195 C22.4317182,33.46395 22.4293094,33.71565 22.4362348,33.96765 C22.6009392,40.08255 27.7946989,45.27075 33.9312182,45.45105 C34.5614309,45.46965 35.1916436,45.47085 35.8215552,45.48015 C35.929953,41.90445 35.9182099,38.33115 35.7700663,34.75365" id="Fill-26" fill="#5EA3E1"></path>
                <path d="M65.6179699,47.59899 C63.1510169,47.57769 60.6837627,47.51589 58.2147019,47.40369 C58.1285859,50.83029 58.154782,54.25479 58.3026246,57.68289 C58.4971384,62.19339 61.4353207,66.19269 65.4400169,68.01189 C65.8341633,61.20159 65.8931798,54.40479 65.6179699,47.59899" id="Fill-28" fill="#8CD1FF"></path>
                <path d="M65.3666978,42.66621 C65.2113276,40.24101 64.2185845,37.94901 62.6913801,36.08451 C60.6206812,33.55701 57.5659713,31.81581 54.2655597,31.60581 C53.7313994,31.57191 53.1972392,31.54641 52.663079,31.51641 C49.6442006,31.34721 46.6274298,31.24041 43.6115624,31.20141 C43.6723856,32.83491 43.7473608,34.46901 43.8482309,36.10401 C44.0207641,38.90031 45.2860072,41.51151 47.2007337,43.50411 C49.2434298,45.62931 52.0256398,47.05071 55.0192254,47.23401 C56.0848359,47.29941 57.1501453,47.35521 58.2148525,47.40381 C60.6836122,47.51571 63.1508663,47.57751 65.6181204,47.59911 C65.5515762,45.95541 65.4720845,44.31141 65.3666978,42.66621" id="Fill-30" fill="#5EA3E1"></path>
                <path d="M35.0562367,31.26594 C37.9086041,31.18644 40.7597671,31.16424 43.6115323,31.20144 C43.4203307,26.04684 43.4287616,20.89734 43.6374273,15.74214 C42.8301649,15.53364 41.9939964,15.40794 41.1388583,15.38274 C38.7492892,15.31254 36.3609246,15.30954 33.9713555,15.37344 C29.0491925,15.50514 24.7280351,18.86064 23.1153169,23.33814 C23.5383693,23.35284 23.9614218,23.36154 24.3847754,23.38014 C29.1943251,23.59044 33.4203334,26.88954 35.0562367,31.26594" id="Fill-32" fill="#1A7BD3"></path>
                <g id="Group-36" transform="translate(0.000000, 23.203500)" fill="#515B78">
                    <path d="M16.4155807,19.46283 C16.6661,15.55383 19.0863818,11.98833 22.4265392,10.00833 C22.3816746,7.87983 22.3825779,5.75163 22.4455088,3.62283 C22.4813403,2.41233 22.7171055,1.23993 23.1151663,0.13443 C19.2631304,-0.00147 15.4141055,0.00153 11.5605641,0.15963 C5.5357547,0.40713 0.409442541,5.50113 0.145072376,11.50323 C-0.0425160221,15.76383 -0.0482370166,20.01933 0.128210497,24.28023 C0.376320994,30.28293 5.48938453,35.39073 11.5132906,35.65383 C13.0133956,35.71953 14.5125972,35.75463 16.0117989,35.77563 C15.9335116,30.33993 16.0666,24.90633 16.4155807,19.46283" id="Fill-34"></path>
                </g>
                <path d="M22.4263887,33.21192 C23.9683472,32.29782 25.7054218,31.72122 27.5165682,31.60602 C30.0316981,31.44582 32.5444191,31.33572 35.0562367,31.26582 C33.4200323,26.88972 29.1943251,23.59032 24.3847754,23.38002 C23.9614218,23.36172 23.5383693,23.35302 23.1153169,23.33802 C22.7172561,24.44322 22.4814909,25.61592 22.4456594,26.82642 C22.3824273,28.95522 22.3818251,31.08312 22.4263887,33.21192" id="Fill-37" fill="#263156"></path>
                <path d="M108.718617,40.08765 C108.568366,33.88575 103.346001,28.68255 97.1212583,28.53315 C95.1535373,28.48575 93.1867196,28.48575 91.2189986,28.53315 C91.2105677,28.53345 91.2024378,28.53405 91.194308,28.53435 C91.1343881,31.05645 91.0323135,33.57915 90.8766423,36.10395 C90.8573715,36.41625 90.8218412,36.72585 90.7760732,37.03275 C92.743192,39.07095 94.0186727,41.77245 94.1445345,44.68935 C94.3297141,48.98085 94.3303163,53.26695 94.1484489,57.55815 C95.1393854,57.55845 96.1303218,57.54675 97.1215594,57.52305 C103.346001,57.37335 108.568366,52.17015 108.718617,45.96855 C108.765891,44.00805 108.766192,42.04815 108.718617,40.08765" id="Fill-39" fill="#19A2FF"></path>
                <path d="M94.1444442,44.68941 C94.0185823,41.77221 92.7431017,39.07101 90.7759829,37.03281 C89.9741403,42.40221 85.2040354,46.88631 79.7257315,47.23221 C79.7188061,47.23281 79.7121818,47.23371 79.7052564,47.23401 C75.0050077,47.52171 70.3119856,47.63961 65.6180602,47.59911 C65.8932702,54.40491 65.8339525,61.20171 65.4398061,68.01171 C66.764668,68.61351 68.2054552,68.97711 69.7028503,69.04131 C74.0520105,69.22761 78.3951486,69.22761 82.7440077,69.04131 C88.768516,68.78331 93.8854939,63.68511 94.1444442,57.68301 C94.1462508,57.64131 94.1465519,57.59991 94.1483586,57.55821 C94.330226,53.26701 94.3296238,48.98091 94.1444442,44.68941" id="Fill-41" fill="#1A7BD3"></path>
                <path d="M52.6341729,26.86626 C52.6760265,28.41666 52.6784354,29.96646 52.663079,31.51656 C53.1972392,31.54656 53.7313994,31.57176 54.2655597,31.60596 C57.5659713,31.81596 60.6206812,33.55686 62.6913801,36.08466 C64.6419381,34.46916 67.0863083,33.44316 69.7029105,33.33096 C73.8151011,33.15486 77.922474,33.15126 82.0340624,33.30816 C84.1661867,30.50436 87.5027309,28.63116 91.1942779,28.53426 C91.3288718,22.85976 91.2270983,17.18946 90.8766122,11.50836 C90.5198028,5.72946 85.5058028,0.73356 79.7056177,0.37836 C71.4694934,-0.12594 63.2553497,-0.12594 55.0192254,0.37836 C49.2190403,0.73356 44.2047392,5.72946 43.8482309,11.50866 C43.7612116,12.92046 43.6946674,14.33136 43.6374575,15.74226 C48.6246591,17.03076 52.4923525,21.60366 52.6341729,26.86626" id="Fill-43" fill="#515B78"></path>
                <path d="M43.6116829,31.20135 C46.6275503,31.24035 49.6440199,31.34715 52.6631994,31.51665 C52.6785558,29.96655 52.6758459,28.41675 52.6342934,26.86635 C52.4921718,21.60375 48.6244785,17.03055 43.6375779,15.74235 C43.4289122,20.89725 43.4201801,26.04675 43.6116829,31.20135" id="Fill-45" fill="#263156"></path>
                <path d="M82.0340022,33.30822 C82.2706707,33.31722 82.5073392,33.32082 82.7443088,33.33102 C85.8408724,33.46362 88.6953475,34.87722 90.7759829,37.03272 C90.8217508,36.72582 90.8572812,36.41622 90.8765519,36.10392 C91.0322232,33.57912 91.1342978,31.05642 91.1942177,28.53432 C87.5026707,28.63092 84.1661265,30.50442 82.0340022,33.30822" id="Fill-47" fill="#404A6B"></path>
                <path d="M82.7442185,33.33102 C82.5072489,33.32082 82.2708815,33.31722 82.0339119,33.30822 C77.9223235,33.15132 73.8152517,33.15492 69.7027599,33.33102 C67.0864588,33.44322 64.6417876,34.46922 62.6915307,36.08472 C64.218434,37.94922 65.2111771,40.24092 65.3665472,42.66612 C65.4722351,44.31132 65.5514257,45.95532 65.6179699,47.59902 C70.3121964,47.63952 75.0052185,47.52192 79.7054671,47.23392 C79.7120914,47.23362 79.7190169,47.23272 79.7256412,47.23212 C85.2042461,46.88652 89.97405,42.40212 90.7758925,37.03272 C88.6952572,34.87722 85.840782,33.46362 82.7442185,33.33102" id="Fill-49" fill="#263156"></path>
                <path d="M58.3026246,57.6828 C58.154782,54.2547 58.1285859,50.8302 58.2147019,47.4036 C57.1499948,47.3553 56.0849865,47.2995 55.019376,47.2341 C52.0254892,47.0508 49.2432793,45.6294 47.2008843,43.5039 C45.4174395,44.6829 43.3199423,45.4011 41.098992,45.4605 C39.3393345,45.5076 37.5805804,45.5058 35.8215251,45.4803 C35.8007489,46.1637 35.7832848,46.8471 35.7528732,47.5308 C35.4888041,53.5329 30.362492,58.6269 24.3376826,58.8744 C21.5608925,58.9884 18.7868124,59.0178 16.011829,58.9791 C16.0615113,62.4231 16.1942986,65.868 16.4156108,69.3171 C16.7817544,75.0306 21.7822047,80.0124 27.5167489,80.3775 C36.4418014,80.9454 45.3403566,80.9454 54.2654091,80.3775 C59.9999533,80.0124 65.0004036,75.0306 65.3665472,69.3171 C65.39455,68.8818 65.414724,68.4468 65.4400169,68.0118 C61.4353207,66.1926 58.4971384,62.1933 58.3026246,57.6828" id="Fill-51" fill="#19A2FF"></path>
                <path d="M43.6116829,31.20135 C40.7599177,31.16445 37.9084536,31.18665 35.0563873,31.26585 C35.4692022,32.37105 35.7200227,33.54345 35.7700061,34.75365 C35.9181497,38.33085 35.9301939,41.90445 35.821495,45.48015 C37.5805503,45.50595 39.3393044,45.50775 41.0989619,45.46065 C43.3199122,45.40095 45.4174094,44.68275 47.2008541,43.50405 C45.2858265,41.51145 44.0205834,38.90025 43.8483514,36.10395 C43.7474812,34.46895 43.672205,32.83485 43.6116829,31.20135" id="Fill-53" fill="#8CD1FF"></path>
                <path d="M24.3375622,58.87428 C30.3623715,58.62678 35.4886837,53.53278 35.7530539,47.53098 C35.7831644,46.84698 35.8006285,46.16358 35.8214047,45.48018 C35.1914931,45.47088 34.5615815,45.46968 33.9313688,45.45108 C27.7945483,45.27078 22.6010898,40.08228 22.4360843,33.96768 C22.4291588,33.71568 22.4315677,33.46398 22.4264489,33.21198 C19.0865925,35.19168 16.6663108,38.75748 16.4154903,42.66618 C16.0665097,48.10968 15.9334213,53.54328 16.0117086,58.97898 C18.786692,59.01798 21.5610732,58.98828 24.3375622,58.87428" id="Fill-55" fill="#8CD1FF"></path>
                <path d="M35.7700663,34.75365 C35.7200829,33.54345 35.4692624,32.37105 35.0561464,31.26585 C32.5443287,31.33575 30.0316077,31.44585 27.516779,31.60575 C25.7056326,31.72125 23.9682569,32.29785 22.4262983,33.21195 C22.4317182,33.46395 22.4293094,33.71565 22.4362348,33.96765 C22.6009392,40.08255 27.7946989,45.27075 33.9312182,45.45105 C34.5614309,45.46965 35.1916436,45.47085 35.8215552,45.48015 C35.929953,41.90445 35.9182099,38.33115 35.7700663,34.75365" id="Fill-57" fill="#5EA3E1"></path>
                <path d="M65.6179699,47.59899 C63.1510169,47.57769 60.6837627,47.51589 58.2147019,47.40369 C58.1285859,50.83029 58.154782,54.25479 58.3026246,57.68289 C58.4971384,62.19339 61.4353207,66.19269 65.4400169,68.01189 C65.8341633,61.20159 65.8931798,54.40479 65.6179699,47.59899" id="Fill-59" fill="#8CD1FF"></path>
                <path d="M65.3666978,42.66621 C65.2113276,40.24101 64.2185845,37.94901 62.6913801,36.08451 C60.6206812,33.55701 57.5659713,31.81581 54.2655597,31.60581 C53.7313994,31.57191 53.1972392,31.54641 52.663079,31.51641 C49.6442006,31.34721 46.6274298,31.24041 43.6115624,31.20141 C43.6723856,32.83491 43.7473608,34.46901 43.8482309,36.10401 C44.0207641,38.90031 45.2860072,41.51151 47.2007337,43.50411 C49.2434298,45.62931 52.0256398,47.05071 55.0192254,47.23401 C56.0848359,47.29941 57.1501453,47.35521 58.2148525,47.40381 C60.6836122,47.51571 63.1508663,47.57751 65.6181204,47.59911 C65.5515762,45.95541 65.4720845,44.31141 65.3666978,42.66621" id="Fill-61" fill="#5EA3E1"></path>
            </g>
        </g>
    </g>
</svg>